<svg xmlns="http://www.w3.org/2000/svg" width="433" height="73" viewBox="0 0 433 73" fill="none" role="img" class="icon ">
<g clip-path="url(#clip0_1527_27989)">
<path d="M209.846 14.7979H203.656C201.938 14.7979 200.333 15.6482 199.369 17.0704L191.09 29.2835C190.869 29.6074 190.391 29.6074 190.171 29.2835L181.892 17.0704C180.929 15.6482 179.322 14.7979 177.605 14.7979H171.414L186.162 36.5535L171.495 58.188H177.686C179.403 58.188 181.009 57.3376 181.973 55.9154L190.171 43.8235C190.391 43.4996 190.869 43.4996 191.09 43.8235L199.287 55.9154C200.25 57.3376 201.857 58.188 203.574 58.188H209.765L195.098 36.5535L209.846 14.7979Z" fill="white"></path>
<path d="M158.672 19.2362V58.188H161.631C164.083 58.188 166.069 56.2013 166.069 53.7496V14.7979H163.111C160.659 14.7979 158.672 16.7845 158.672 19.2362Z" fill="white"></path>
<path d="M153.25 14.7979H150.617C147.718 14.7979 145.207 16.8026 144.564 19.6288L138.674 45.5225L133.518 21.3513C132.565 16.884 127.981 13.8715 123.291 15.167C120.303 15.992 118.088 18.5161 117.442 21.5467L112.339 45.4899L106.459 19.6306C105.815 16.8044 103.304 14.7979 100.405 14.7979H97.7734L107.641 58.1862H111.38C114.773 58.1862 117.704 55.8141 118.412 52.4957L124.72 22.8929C124.798 22.5256 125.127 22.2596 125.502 22.2596C125.876 22.2596 126.206 22.5256 126.284 22.8929L132.597 52.4976C133.305 55.8159 136.236 58.1862 139.629 58.1862H143.381L153.25 14.7979Z" fill="white"></path>
</g>
<path d="M220.062 51.0923L223.399 47.931C225.234 50.0386 227.341 51.6973 229.722 52.9071C232.142 54.117 234.874 54.7219 237.918 54.7219C240.182 54.7219 242.191 54.3707 243.948 53.6682C245.704 52.9657 247.089 51.99 248.104 50.7411C249.119 49.4531 249.626 47.9506 249.626 46.2333C249.626 44.0477 248.709 42.35 246.875 41.1401C245.041 39.8912 241.918 38.9351 237.508 38.2716C233.683 37.6862 230.62 36.9251 228.317 35.9884C226.053 35.0127 224.414 33.8029 223.399 32.3588C222.385 30.9148 221.877 29.178 221.877 27.1486C221.877 24.7678 222.541 22.6798 223.868 20.8845C225.195 19.0502 227.029 17.6257 229.371 16.611C231.712 15.5962 234.405 15.0889 237.45 15.0889C240.923 15.0889 243.987 15.7719 246.641 17.1378C249.334 18.5038 251.714 20.3967 253.783 22.8164L250.504 25.9192C248.826 23.8507 246.972 22.2115 244.943 21.0016C242.953 19.7918 240.455 19.1868 237.45 19.1868C234.249 19.1868 231.634 19.9088 229.605 21.3529C227.575 22.7579 226.561 24.6703 226.561 27.09C226.561 28.9634 227.419 30.4269 229.137 31.4807C230.854 32.5344 233.8 33.3735 237.976 33.998C241.957 34.5834 245.138 35.403 247.519 36.4568C249.9 37.4715 251.617 38.7789 252.671 40.3791C253.763 41.9792 254.31 43.9111 254.31 46.1748C254.31 48.6726 253.607 50.8777 252.202 52.79C250.836 54.6634 248.924 56.1465 246.465 57.2393C244.006 58.293 241.157 58.8199 237.918 58.8199C234.171 58.8199 230.815 58.1369 227.849 56.7709C224.922 55.4049 222.326 53.5121 220.062 51.0923Z" fill="white"></path>
<path d="M276.363 57.8832H271.855V20.065H257.922V16.0255H290.296V20.065H276.363V57.8832Z" fill="white"></path>
<path d="M328.524 16.0255V41.3743C328.524 46.8773 327.041 51.1704 324.075 54.2536C321.109 57.2978 317.011 58.8199 311.781 58.8199C306.59 58.8199 302.493 57.2978 299.487 54.2536C296.521 51.1704 295.038 46.8773 295.038 41.3743V16.0255H299.546V41.3743C299.546 45.7064 300.619 49.0238 302.766 51.3265C304.912 53.5901 307.917 54.7219 311.781 54.7219C315.684 54.7219 318.709 53.5901 320.855 51.3265C323.002 49.0238 324.075 45.7064 324.075 41.3743V16.0255H328.524Z" fill="white"></path>
<path d="M336.116 57.8832V16.0255H349.639C353.932 16.0255 357.699 16.9232 360.938 18.7185C364.216 20.5138 366.773 22.9921 368.607 26.1533C370.441 29.2756 371.358 32.8662 371.358 36.9251C371.358 40.984 370.441 44.5941 368.607 47.7554C366.773 50.9167 364.216 53.395 360.938 55.1903C357.699 56.9856 353.932 57.8832 349.639 57.8832H336.116ZM340.624 53.7853H349.639C353.113 53.7853 356.118 53.0828 358.655 51.6777C361.231 50.2727 363.202 48.3018 364.568 45.765C365.973 43.2281 366.675 40.2815 366.675 36.9251C366.675 33.5687 365.973 30.6416 364.568 28.1438C363.202 25.6069 361.231 23.636 358.655 22.231C356.118 20.826 353.113 20.1235 349.639 20.1235H340.624V53.7853Z" fill="white"></path>
<path d="M382.26 57.8832H377.752V16.0255H382.26V57.8832Z" fill="white"></path>
<path d="M410.423 58.8199C407.3 58.8199 404.412 58.2735 401.758 57.1807C399.143 56.0879 396.841 54.5658 394.85 52.6144C392.899 50.624 391.377 48.3018 390.284 45.6479C389.23 42.955 388.703 40.0474 388.703 36.9251C388.703 33.8029 389.23 30.9148 390.284 28.2609C391.377 25.6069 392.899 23.3043 394.85 21.3529C396.841 19.3624 399.143 17.8208 401.758 16.728C404.412 15.6353 407.3 15.0889 410.423 15.0889C413.545 15.0889 416.413 15.6353 419.028 16.728C421.682 17.8208 423.985 19.3624 425.936 21.3529C427.927 23.3043 429.449 25.6069 430.502 28.2609C431.595 30.9148 432.142 33.8029 432.142 36.9251C432.142 40.0474 431.595 42.955 430.502 45.6479C429.449 48.3018 427.927 50.624 425.936 52.6144C423.985 54.5658 421.682 56.0879 419.028 57.1807C416.413 58.2735 413.545 58.8199 410.423 58.8199ZM410.423 54.7219C413.779 54.7219 416.726 53.9609 419.262 52.4388C421.838 50.9167 423.848 48.8092 425.292 46.1162C426.736 43.4233 427.458 40.3596 427.458 36.9251C427.458 33.4906 426.736 30.4464 425.292 27.7925C423.848 25.0996 421.838 22.9921 419.262 21.47C416.726 19.9479 413.779 19.1868 410.423 19.1868C407.105 19.1868 404.158 19.9479 401.583 21.47C399.007 22.9921 396.997 25.0996 395.553 27.7925C394.109 30.4464 393.387 33.4906 393.387 36.9251C393.387 40.3596 394.109 43.4233 395.553 46.1162C396.997 48.8092 399.007 50.9167 401.583 52.4388C404.158 53.9609 407.105 54.7219 410.423 54.7219Z" fill="white"></path>
<path fill-rule="evenodd" clip-rule="evenodd" d="M0 0.987074C0 0.441928 0.441928 0 0.987074 0H71.0693C71.6144 0 72.0564 0.441928 72.0564 0.987074V71.0693C72.0564 71.6144 71.6144 72.0564 71.0693 72.0564H0.987074C0.441928 72.0564 0 71.6144 0 71.0693V0.987074ZM36.0283 10.8135C22.0998 10.8135 10.8086 22.1047 10.8086 36.0332C10.8086 49.9617 22.0998 61.2529 36.0283 61.2529C49.9568 61.2529 61.248 49.9617 61.248 36.0332C61.248 22.1047 49.9568 10.8135 36.0283 10.8135Z" fill="white"></path>
<defs>
<clipPath id="clip0_1527_27989">
<rect width="112.072" height="43.3901" fill="white" transform="translate(97.7734 14.7979)"></rect>
</clipPath>
</defs>
</svg>